<mxfile host="app.diagrams.net" modified="2023-09-25T09:29:22.796Z" agent="Mozilla/5.0 (Windows NT 10.0; Win64; x64) AppleWebKit/537.36 (KHTML, like Gecko) Chrome/116.0.0.0 Safari/537.36" etag="EjOub3uAdGi08RVD6oPJ" version="21.8.0" type="github">
  <diagram name="Страница — 1" id="g-NbgW3OWLjMFJM1k_oT">
    <mxGraphModel dx="1301" dy="619" grid="1" gridSize="10" guides="1" tooltips="1" connect="1" arrows="1" fold="1" page="1" pageScale="1" pageWidth="827" pageHeight="1169" math="0" shadow="0">
      <root>
        <mxCell id="0" />
        <mxCell id="1" parent="0" />
        <mxCell id="yq-rqncpho9hYTR--qHu-1" value="frontend" style="shape=umlLifeline;perimeter=lifelinePerimeter;container=1;collapsible=0;recursiveResize=0;rounded=0;shadow=0;strokeWidth=1;" parent="1" vertex="1">
          <mxGeometry x="24" y="30" width="100" height="530" as="geometry" />
        </mxCell>
        <mxCell id="yq-rqncpho9hYTR--qHu-2" value="" style="points=[];perimeter=orthogonalPerimeter;rounded=0;shadow=0;strokeWidth=1;" parent="yq-rqncpho9hYTR--qHu-1" vertex="1">
          <mxGeometry x="45" y="70" width="10" height="420" as="geometry" />
        </mxCell>
        <mxCell id="yq-rqncpho9hYTR--qHu-3" value="api-proxy" style="shape=umlLifeline;perimeter=lifelinePerimeter;container=1;collapsible=0;recursiveResize=0;rounded=0;shadow=0;strokeWidth=1;" parent="1" vertex="1">
          <mxGeometry x="160" y="30" width="100" height="530" as="geometry" />
        </mxCell>
        <mxCell id="yq-rqncpho9hYTR--qHu-4" value="" style="points=[];perimeter=orthogonalPerimeter;rounded=0;shadow=0;strokeWidth=1;" parent="yq-rqncpho9hYTR--qHu-3" vertex="1">
          <mxGeometry x="45" y="70" width="10" height="100" as="geometry" />
        </mxCell>
        <mxCell id="jm9BDiPDTdnZZyYhS9lE-3" value="" style="points=[];perimeter=orthogonalPerimeter;rounded=0;shadow=0;strokeWidth=1;" vertex="1" parent="yq-rqncpho9hYTR--qHu-3">
          <mxGeometry x="45" y="320" width="10" height="90" as="geometry" />
        </mxCell>
        <mxCell id="jm9BDiPDTdnZZyYhS9lE-5" value="Проверка запроса и передача в файловый сервис" style="verticalAlign=bottom;endArrow=block;shadow=0;strokeWidth=1;exitX=1.028;exitY=0.051;exitDx=0;exitDy=0;exitPerimeter=0;fontSize=10;entryX=-0.031;entryY=0.124;entryDx=0;entryDy=0;entryPerimeter=0;" edge="1" parent="yq-rqncpho9hYTR--qHu-3" target="jm9BDiPDTdnZZyYhS9lE-6">
          <mxGeometry relative="1" as="geometry">
            <mxPoint x="54.99999999999997" y="350" as="sourcePoint" />
            <mxPoint x="510" y="350" as="targetPoint" />
          </mxGeometry>
        </mxCell>
        <mxCell id="yq-rqncpho9hYTR--qHu-5" value="workflow-api" style="shape=umlLifeline;perimeter=lifelinePerimeter;container=1;collapsible=0;recursiveResize=0;rounded=0;shadow=0;strokeWidth=1;" parent="1" vertex="1">
          <mxGeometry x="310" y="30" width="100" height="530" as="geometry" />
        </mxCell>
        <mxCell id="yq-rqncpho9hYTR--qHu-6" value="" style="points=[];perimeter=orthogonalPerimeter;rounded=0;shadow=0;strokeWidth=1;" parent="yq-rqncpho9hYTR--qHu-5" vertex="1">
          <mxGeometry x="45" y="70" width="10" height="190" as="geometry" />
        </mxCell>
        <mxCell id="jm9BDiPDTdnZZyYhS9lE-2" value="Если возращается содержимое файла, &#xa;то формируется файл для скачивания" style="verticalAlign=bottom;endArrow=open;dashed=1;endSize=8;shadow=0;strokeWidth=1;fontSize=10;exitX=-0.191;exitY=0.872;exitDx=0;exitDy=0;exitPerimeter=0;" edge="1" parent="yq-rqncpho9hYTR--qHu-5">
          <mxGeometry relative="1" as="geometry">
            <mxPoint x="-230" y="250" as="targetPoint" />
            <mxPoint x="45" y="250" as="sourcePoint" />
          </mxGeometry>
        </mxCell>
        <mxCell id="yq-rqncpho9hYTR--qHu-7" value="document-service" style="shape=umlLifeline;perimeter=lifelinePerimeter;container=1;collapsible=0;recursiveResize=0;rounded=0;shadow=0;strokeWidth=1;" parent="1" vertex="1">
          <mxGeometry x="460" y="30" width="130" height="530" as="geometry" />
        </mxCell>
        <mxCell id="yq-rqncpho9hYTR--qHu-8" value="" style="points=[];perimeter=orthogonalPerimeter;rounded=0;shadow=0;strokeWidth=1;" parent="yq-rqncpho9hYTR--qHu-7" vertex="1">
          <mxGeometry x="60" y="100" width="10" height="160" as="geometry" />
        </mxCell>
        <mxCell id="yq-rqncpho9hYTR--qHu-9" value="" style="edgeStyle=elbowEdgeStyle;elbow=horizontal;endArrow=classic;html=1;exitX=1.039;exitY=0.003;exitDx=0;exitDy=0;exitPerimeter=0;" parent="yq-rqncpho9hYTR--qHu-7" edge="1">
          <mxGeometry width="50" height="50" relative="1" as="geometry">
            <mxPoint x="70.38999999999987" y="120.24000000000001" as="sourcePoint" />
            <mxPoint x="70" y="150" as="targetPoint" />
            <Array as="points">
              <mxPoint x="100" y="150" />
              <mxPoint x="100" y="119" />
            </Array>
          </mxGeometry>
        </mxCell>
        <mxCell id="yq-rqncpho9hYTR--qHu-10" value="file" style="shape=umlLifeline;perimeter=lifelinePerimeter;container=1;collapsible=0;recursiveResize=0;rounded=0;shadow=0;strokeWidth=1;" parent="1" vertex="1">
          <mxGeometry x="630" y="30" width="100" height="530" as="geometry" />
        </mxCell>
        <mxCell id="yq-rqncpho9hYTR--qHu-11" value="" style="points=[];perimeter=orthogonalPerimeter;rounded=0;shadow=0;strokeWidth=1;" parent="yq-rqncpho9hYTR--qHu-10" vertex="1">
          <mxGeometry x="45" y="180" width="10" height="80" as="geometry" />
        </mxCell>
        <mxCell id="jm9BDiPDTdnZZyYhS9lE-6" value="" style="points=[];perimeter=orthogonalPerimeter;rounded=0;shadow=0;strokeWidth=1;" vertex="1" parent="yq-rqncpho9hYTR--qHu-10">
          <mxGeometry x="45" y="330" width="10" height="160" as="geometry" />
        </mxCell>
        <mxCell id="yq-rqncpho9hYTR--qHu-12" value="Вызов действия workflow" style="verticalAlign=bottom;endArrow=block;entryX=0.005;entryY=0.051;shadow=0;strokeWidth=1;entryDx=0;entryDy=0;entryPerimeter=0;exitX=1.028;exitY=0.051;exitDx=0;exitDy=0;exitPerimeter=0;fontSize=10;" parent="1" edge="1">
          <mxGeometry relative="1" as="geometry">
            <mxPoint x="79.27999999999997" y="119.99999999999997" as="sourcePoint" />
            <mxPoint x="205.04999999999995" y="119.99999999999997" as="targetPoint" />
          </mxGeometry>
        </mxCell>
        <mxCell id="yq-rqncpho9hYTR--qHu-13" value="Проверка &#xa;действия workflow" style="verticalAlign=bottom;endArrow=block;shadow=0;strokeWidth=1;entryX=0.074;entryY=0.056;entryDx=0;entryDy=0;entryPerimeter=0;fontSize=10;exitX=1.059;exitY=0.025;exitDx=0;exitDy=0;exitPerimeter=0;" parent="1" edge="1">
          <mxGeometry relative="1" as="geometry">
            <mxPoint x="215.59000000000003" y="130.11" as="sourcePoint" />
            <mxPoint x="355.74" y="130" as="targetPoint" />
          </mxGeometry>
        </mxCell>
        <mxCell id="yq-rqncpho9hYTR--qHu-14" value="Запрос на генерацию&#xa; файла отчета" style="verticalAlign=bottom;endArrow=block;shadow=0;strokeWidth=1;exitX=1.041;exitY=0.264;exitDx=0;exitDy=0;exitPerimeter=0;fontSize=10;" parent="1" source="yq-rqncpho9hYTR--qHu-6" edge="1">
          <mxGeometry relative="1" as="geometry">
            <mxPoint x="370" y="150" as="sourcePoint" />
            <mxPoint x="520" y="150" as="targetPoint" />
          </mxGeometry>
        </mxCell>
        <mxCell id="yq-rqncpho9hYTR--qHu-15" value="&lt;font style=&quot;font-size: 10px;&quot;&gt;Генерация отчета&lt;/font&gt;" style="text;html=1;strokeColor=none;fillColor=none;align=center;verticalAlign=middle;whiteSpace=wrap;rounded=0;" parent="1" vertex="1">
          <mxGeometry x="570" y="150" width="40" height="20" as="geometry" />
        </mxCell>
        <mxCell id="yq-rqncpho9hYTR--qHu-16" value="Сохранение файла" style="verticalAlign=bottom;endArrow=block;shadow=0;strokeWidth=1;exitX=1.041;exitY=0.264;exitDx=0;exitDy=0;exitPerimeter=0;entryX=-0.112;entryY=0.107;entryDx=0;entryDy=0;entryPerimeter=0;fontSize=10;" parent="1" target="yq-rqncpho9hYTR--qHu-11" edge="1">
          <mxGeometry relative="1" as="geometry">
            <mxPoint x="530" y="220" as="sourcePoint" />
            <mxPoint x="660" y="220" as="targetPoint" />
          </mxGeometry>
        </mxCell>
        <mxCell id="yq-rqncpho9hYTR--qHu-17" value="Возврат содержимого файла &#xa;или информации о файле&#xa; (_id, name, size, create-date)" style="verticalAlign=bottom;endArrow=open;dashed=1;endSize=8;shadow=0;strokeWidth=1;fontSize=10;entryX=1.144;entryY=0.889;entryDx=0;entryDy=0;entryPerimeter=0;exitX=-0.191;exitY=0.872;exitDx=0;exitDy=0;exitPerimeter=0;" parent="1" source="yq-rqncpho9hYTR--qHu-8" target="yq-rqncpho9hYTR--qHu-6" edge="1">
          <mxGeometry relative="1" as="geometry">
            <mxPoint x="390" y="270.2700000000001" as="targetPoint" />
            <mxPoint x="495" y="270" as="sourcePoint" />
          </mxGeometry>
        </mxCell>
        <mxCell id="DortiveKjCez6EjhICab-1" value="Файл сохранен" style="verticalAlign=bottom;endArrow=open;dashed=1;endSize=8;shadow=0;strokeWidth=1;fontSize=10;exitX=-0.321;exitY=0.623;exitDx=0;exitDy=0;exitPerimeter=0;entryX=1.125;entryY=0.817;entryDx=0;entryDy=0;entryPerimeter=0;" parent="1" source="yq-rqncpho9hYTR--qHu-11" target="yq-rqncpho9hYTR--qHu-8" edge="1">
          <mxGeometry relative="1" as="geometry">
            <mxPoint x="540" y="260" as="targetPoint" />
            <mxPoint x="675" y="280" as="sourcePoint" />
          </mxGeometry>
        </mxCell>
        <mxCell id="jm9BDiPDTdnZZyYhS9lE-1" value="&lt;font style=&quot;font-size: 10px;&quot;&gt;Если возращается id файла&amp;nbsp;&lt;/font&gt;" style="shape=umlFrame;whiteSpace=wrap;html=1;pointerEvents=0;width=156;height=20;" vertex="1" parent="1">
          <mxGeometry x="24" y="310" width="710" height="230" as="geometry" />
        </mxCell>
        <mxCell id="jm9BDiPDTdnZZyYhS9lE-4" value="Запрос на скачивание &#xa;файла по id" style="verticalAlign=bottom;endArrow=block;entryX=0.005;entryY=0.051;shadow=0;strokeWidth=1;entryDx=0;entryDy=0;entryPerimeter=0;exitX=1.028;exitY=0.051;exitDx=0;exitDy=0;exitPerimeter=0;fontSize=10;" edge="1" parent="1">
          <mxGeometry relative="1" as="geometry">
            <mxPoint x="78.99999999999997" y="370" as="sourcePoint" />
            <mxPoint x="204.76999999999995" y="370" as="targetPoint" />
          </mxGeometry>
        </mxCell>
        <mxCell id="jm9BDiPDTdnZZyYhS9lE-7" value="Передача файла для скачивания" style="verticalAlign=bottom;endArrow=open;dashed=1;endSize=8;shadow=0;strokeWidth=1;fontSize=10;exitX=-0.191;exitY=0.872;exitDx=0;exitDy=0;exitPerimeter=0;" edge="1" parent="1">
          <mxGeometry relative="1" as="geometry">
            <mxPoint x="80" y="490" as="targetPoint" />
            <mxPoint x="675" y="490" as="sourcePoint" />
          </mxGeometry>
        </mxCell>
      </root>
    </mxGraphModel>
  </diagram>
</mxfile>
